#N canvas 654 333 629 508 16;
#X obj 158 351 openda_bus \$0;
#X obj 158 319 osc~;
#X obj 158 234 mtof;
#X msg 158 262 \$1 100;
#X obj 158 290 line~;
#X obj 158 106 openda_parameter \$0 step;
#X obj 158 147 * 5;
#X obj 158 205 + 60;
#X msg 352 306 1;
#X obj 352 267 loadbang;
#X obj 158 175 % 12;
#X connect 1 0 0 0;
#X connect 2 0 3 0;
#X connect 3 0 4 0;
#X connect 4 0 1 0;
#X connect 5 0 6 0;
#X connect 6 0 10 0;
#X connect 7 0 2 0;
#X connect 8 0 0 1;
#X connect 9 0 8 0;
#X connect 10 0 7 0;
