#N canvas 150 409 629 340 10;
#X obj 232 250 dac~;
#N canvas 648 355 725 469 roles 1;
#X obj 280 271 outlet~;
#X obj 165 196 +~;
#X obj 236 104 osc~ 220;
#X obj 149 175 osc~;
#X obj 180 59 t b b;
#X obj 136 82 f 0;
#X obj 142 140 t f f;
#X floatatom 202 176 5 0 0 0 - - -, f 5;
#X msg 170 34 0;
#X obj 347 274 outlet~;
#X obj 114 32 bang~;
#X obj 136 106 + 1;
#X obj 166 335 vorpal_bus \$0;
#X connect 1 0 0 0;
#X connect 1 0 9 0;
#X connect 1 0 12 0;
#X connect 2 0 1 1;
#X connect 3 0 1 0;
#X connect 5 0 11 0;
#X connect 6 0 3 0;
#X connect 6 0 7 0;
#X connect 6 1 5 1;
#X connect 8 0 5 1;
#X connect 10 0 5 0;
#X connect 11 0 6 0;
#X restore 199 96 pd roles;
#X connect 1 0 0 0;
#X connect 1 1 0 1;
