#N canvas 521 198 1041 802 16;
#X obj 70 19 openda_parameter \$0 pos;
#X obj 70 70 list split 1;
#X obj 417 287 openda_osc;
#X obj 76 286 openda_osc;
#X obj 391 203 loadbang;
#X obj 271 656 loadbang;
#X msg 271 684 1;
#X obj 732 206 loadbang;
#X obj 70 98 * 24;
#X obj 70 126 + 60;
#X obj 70 154 mtof;
#X msg 70 182 freq \$1;
#X obj 170 154 mtof;
#X msg 170 182 freq \$1;
#X obj 170 98 * -24;
#X obj 77 718 openda_bus \$0;
#X obj 77 659 *~;
#X obj 170 126 + 84;
#X msg 391 231 rng 1 \, shape 2 \, vol 1;
#X msg 732 234 rng 4 \, shape 3 \, vol 1;
#X connect 0 0 1 0;
#X connect 1 0 8 0;
#X connect 1 1 14 0;
#X connect 2 0 16 1;
#X connect 3 0 16 0;
#X connect 4 0 18 0;
#X connect 5 0 6 0;
#X connect 6 0 15 1;
#X connect 7 0 19 0;
#X connect 8 0 9 0;
#X connect 9 0 10 0;
#X connect 10 0 11 0;
#X connect 11 0 3 2;
#X connect 12 0 13 0;
#X connect 13 0 2 2;
#X connect 14 0 17 0;
#X connect 16 0 15 0;
#X connect 17 0 12 0;
#X connect 18 0 3 2;
#X connect 19 0 2 2;
