#N canvas 766 312 590 595 16;
#X obj 91 349 oda_panel \$0;
#X obj 91 55 r \$0-command;
#X obj 91 94 t a a;
#X obj 91 224 +~;
#X obj 138 145 oda_sound 2_pianoogg.ogg 4000;
#X obj 91 185 oda_sound 4_hihatclosedogg.ogg 4000;
#X msg 5 28 start;
#X msg 12 94 stop;
#X obj 92 300 *~ 2;
#X connect 1 0 2 0;
#X connect 2 0 5 0;
#X connect 2 1 4 0;
#X connect 3 0 8 0;
#X connect 4 0 3 1;
#X connect 5 0 3 0;
#X connect 6 0 2 0;
#X connect 7 0 2 0;
#X connect 8 0 0 0;
