#N canvas 544 153 681 731 16;
#X obj 91 94 t a a;
#X obj 92 506 +~;
#X obj 138 192 oda_sound 2_pianoogg.ogg 4000;
#X obj 91 343 oda_sound 4_hihatclosedogg.ogg 4000;
#X msg 12 94 stop;
#X obj 92 554 *~ 2;
#X msg 66 48 play;
#X msg 165 124 segment 0 4;
#X obj 91 592 openda_bus;
#X obj 165 90 loadbang;
#X obj 75 12 openda_parameter \$0 foo;
#X connect 0 0 3 0;
#X connect 0 1 2 0;
#X connect 1 0 5 0;
#X connect 2 0 1 1;
#X connect 3 0 1 0;
#X connect 4 0 0 0;
#X connect 5 0 8 0;
#X connect 6 0 0 0;
#X connect 7 0 2 0;
#X connect 7 0 3 0;
#X connect 9 0 7 0;
#X connect 10 0 6 0;
