#N canvas 714 363 593 437 10;
#X obj 82 129 print \$0-output;
#X obj 92 49 bng 15 250 50 0 empty empty empty 17 7 0 10 -262144 -1
-1;
#N canvas 3 90 450 250 (subpatch) 0;
#X array \$0-output 4096 float 0;
#X coords 0 1 4095 -1 200 140 1;
#X restore 146 258 graph;
#X obj 346 166 tabwrite~ \$0-output;
#X obj 427 88 receive \$0-input;
#X obj 385 50 bang~;
#X obj 397 99 bng 15 250 50 0 empty empty empty 17 7 0 10 -262144 -1
-1;
#X obj 426 132 print;
#X obj 316 55 osc~ 440;
#X obj 159 179 block~ 1024;
#X connect 1 0 0 0;
#X connect 4 0 3 0;
#X connect 4 0 7 0;
#X connect 6 0 3 0;
#X connect 8 0 3 0;
