#N canvas 1062 244 593 437 10;
#X obj 82 129 print \$0-output;
#X obj 92 49 bng 15 250 50 0 empty empty empty 17 7 0 10 -262144 -1
-1;
#N canvas 3 81 450 250 (subpatch) 0;
#X array \$0-output 64 float 0;
#X coords 0 1 63 -1 200 140 1;
#X restore 119 201 graph;
#X obj 346 166 tabwrite~ \$0-output;
#X msg 417 52 bang;
#X obj 316 55 osc~ 440;
#X connect 1 0 0 0;
#X connect 4 0 3 0;
#X connect 5 0 3 0;
