#N canvas 651 265 593 437 10;
#X obj 103 194 osc~ 440;
#X obj 113 109 *~ 100;
#X obj 109 77 osc~ 222;
#X obj 111 146 +~ 389;
#X obj 102 255 oda_panel \$0;
#X connect 0 0 4 0;
#X connect 1 0 3 0;
#X connect 2 0 1 0;
#X connect 3 0 0 0;
