#N canvas 1024 318 557 620 10;
#X obj 211 316 +~ 389;
#X obj 211 424 oda_panel \$0;
#X obj 142 41 receive \$0-command;
#X obj 211 350 osc~ 389;
#X obj 213 246 osc~ 0;
#X msg 192 172 222 500;
#X obj 212 278 *~ 100;
#X obj 236 391 *~ 0;
#X msg 305 295 0.8 100;
#X obj 142 93 route start test;
#X obj 306 345 line 0 1;
#X obj 187 197 line 0 1;
#X connect 0 0 3 0;
#X connect 2 0 9 0;
#X connect 3 0 7 0;
#X connect 4 0 6 0;
#X connect 5 0 11 0;
#X connect 6 0 0 0;
#X connect 7 0 1 0;
#X connect 8 0 10 0;
#X connect 9 0 8 0;
#X connect 9 1 5 0;
#X connect 10 0 7 1;
#X connect 11 0 4 0;
