#N canvas 806 148 557 620 12;
#X obj 121 366 +~ 389;
#X obj 142 545 oda_panel \$0;
#X obj 143 44 receive \$0-command;
#X obj 121 400 osc~ 389;
#X obj 123 296 osc~ 0;
#X msg 102 222 222 500;
#X obj 122 328 *~ 100;
#X obj 70 438 *~ 0;
#X msg 30 334 0.8 100;
#X obj 31 384 line 0 1;
#X obj 97 247 line 0 1;
#X obj 197 199 mtof;
#X obj 240 283 osc~ 220;
#X obj 252 218 mtof;
#X obj 290 363 *~ 0;
#X obj 135 499 +~;
#X obj 242 255 + 220;
#X obj 143 96 route start test tune x y trilha1 trilha2 ambos;
#X obj 104 473 *~ 1;
#X obj 270 437 *~ 1;
#X obj 129 445 r T1;
#X obj 295 411 r T2;
#X obj 333 150 s T1;
#X obj 417 150 s T2;
#N canvas 0 93 450 300 trackselector 1;
#X msg 123 104 0;
#X msg 193 104 0;
#X msg 154 104 1;
#X msg 225 104 1;
#X obj 117 70 t b b;
#X obj 166 70 t b b;
#X obj 213 70 t b b;
#X obj 123 137 line 1 40;
#X obj 154 156 line 0 40;
#X obj 193 175 line 1 40;
#X obj 225 194 line 0 40;
#X obj 213 36 inlet;
#X obj 166 36 inlet;
#X obj 117 37 inlet;
#X obj 140 228 outlet;
#X obj 204 228 outlet;
#X connect 0 0 7 0;
#X connect 1 0 9 0;
#X connect 2 0 8 0;
#X connect 3 0 10 0;
#X connect 4 0 2 0;
#X connect 4 1 1 0;
#X connect 5 0 0 0;
#X connect 5 1 3 0;
#X connect 6 0 2 0;
#X connect 6 1 3 0;
#X connect 7 0 14 0;
#X connect 8 0 14 0;
#X connect 9 0 15 0;
#X connect 10 0 15 0;
#X connect 11 0 6 0;
#X connect 12 0 5 0;
#X connect 13 0 4 0;
#X restore 333 128 pd trackselector;
#X connect 0 0 3 0;
#X connect 2 0 17 0;
#X connect 3 0 7 0;
#X connect 4 0 6 0;
#X connect 5 0 10 0;
#X connect 6 0 0 0;
#X connect 7 0 18 0;
#X connect 8 0 9 0;
#X connect 9 0 7 1;
#X connect 10 0 4 0;
#X connect 11 0 0 1;
#X connect 12 0 14 0;
#X connect 13 0 16 0;
#X connect 14 0 19 0;
#X connect 15 0 1 0;
#X connect 16 0 12 0;
#X connect 17 0 8 0;
#X connect 17 1 5 0;
#X connect 17 2 11 0;
#X connect 17 3 13 0;
#X connect 17 4 14 1;
#X connect 17 5 24 0;
#X connect 17 6 24 1;
#X connect 17 7 24 2;
#X connect 18 0 15 0;
#X connect 19 0 15 1;
#X connect 20 0 18 1;
#X connect 21 0 19 1;
#X connect 24 0 22 0;
#X connect 24 1 23 0;
