#N canvas 1024 333 557 620 10;
#X obj 211 424 oda_panel \$0;
#X obj 142 41 receive \$0-command;
#X obj 211 350 osc~ 389;
#X obj 213 246 osc~ 0;
#X msg 192 172 222 500;
#X obj 212 278 *~ 100;
#X obj 236 391 *~ 0;
#X msg 305 295 0.8 100;
#X obj 306 345 line 0 1;
#X obj 187 197 line 0 1;
#X obj 287 149 mtof;
#X msg 42 42 start;
#X obj 142 93 route start test tune stop;
#X msg 337 262 0 100;
#X obj 211 316 +~ 880;
#X connect 1 0 12 0;
#X connect 2 0 6 0;
#X connect 3 0 5 0;
#X connect 4 0 9 0;
#X connect 5 0 14 0;
#X connect 6 0 0 0;
#X connect 7 0 8 0;
#X connect 8 0 6 1;
#X connect 9 0 3 0;
#X connect 10 0 14 1;
#X connect 11 0 12 0;
#X connect 12 0 7 0;
#X connect 12 1 4 0;
#X connect 12 2 10 0;
#X connect 12 3 13 0;
#X connect 13 0 8 0;
#X connect 14 0 2 0;
