#N canvas 994 450 593 437 10;
#N canvas 3 90 450 250 (subpatch) 0;
#X array \$0-output 4096 float 0;
#X coords 0 1 4095 -1 200 140 1;
#X restore 146 258 graph;
#X obj 388 242 tabwrite~ \$0-output;
#X obj 382 36 receive \$0-input;
#X obj 399 199 osc~ 440;
#X obj 159 179 block~ 1024;
#X obj 409 114 *~ 100;
#X obj 405 82 osc~ 222;
#X obj 407 151 +~ 389;
#X obj 388 242 tabwrite~ \$0-output;
#X connect 2 0 1 0;
#X connect 3 0 1 0;
#X connect 5 0 7 0;
#X connect 6 0 5 0;
#X connect 7 0 3 0;
