#N canvas 627 386 720 298 16;
#X obj 46 173 openda_bus \$0;
#X obj 240 112 loadbang;
#X obj 47 69 osc~ 440;
#X msg 240 140 1;
#X text 348 113 This is the initial volume value;
#X text 140 69 This is a sinusoidal oscillator at 440 Hz;
#X connect 1 0 3 0;
#X connect 2 0 0 0;
#X connect 3 0 0 1;
