#N canvas 209 384 681 444 10;
#X obj 76 30 loadbang;
#X obj 104 172 oggread~;
#X obj 103 355 oda_panel \$0;
#X obj 103 269 *~ 0.5;
#X obj 119 232 *~ 0.5;
#X obj 103 313 +~;
#X obj 133 133 print;
#X msg 104 93 open derp.ogg;
#X obj 77 59 t b b;
#X msg 46 127 start;
#X obj 284 122 r \$0-command;
#X obj 284 162 print;
#X connect 0 0 8 0;
#X connect 1 0 3 0;
#X connect 1 1 4 0;
#X connect 3 0 5 0;
#X connect 4 0 5 1;
#X connect 5 0 2 0;
#X connect 7 0 1 0;
#X connect 7 0 6 0;
#X connect 8 0 9 0;
#X connect 8 1 7 0;
#X connect 9 0 1 0;
#X connect 10 0 11 0;
