#N canvas 581 339 705 561 16;
#X obj 76 30 loadbang;
#X obj 104 172 oggread~;
#X obj 103 269 *~ 0.5;
#X obj 119 232 *~ 0.5;
#X obj 103 313 +~;
#X obj 133 133 print;
#X msg 104 93 open derp.ogg;
#X obj 77 59 t b b;
#X msg 46 127 start;
#X obj 284 122 r \$0-command;
#X obj 284 162 print;
#X obj 102 376 vorpal_bus \$0;
#X obj 296 312 loadbang;
#X msg 296 340 1;
#X connect 0 0 7 0;
#X connect 1 0 2 0;
#X connect 1 1 3 0;
#X connect 2 0 4 0;
#X connect 3 0 4 1;
#X connect 4 0 11 0;
#X connect 6 0 1 0;
#X connect 6 0 5 0;
#X connect 7 0 8 0;
#X connect 7 1 6 0;
#X connect 8 0 1 0;
#X connect 9 0 10 0;
#X connect 12 0 13 0;
#X connect 13 0 11 1;
